<svg width="590" height="80" viewBox="0 0 590 80" fill="none" xmlns="http://www.w3.org/2000/svg">
<path d="M3 32.04C20.6667 -6.68 38.3333 -6.68 56 32.04C72.5716 65.96 90.2383 65.96 109 32.04C126.667 -1.88 144.333 -1.88 162 32.04C179.417 65 197.083 65 215 32.04C232.667 -0.919998 250.333 -0.919998 268 32.04C286.181 66.92 303.848 66.92 321 32.04C338.667 -2.84 356.333 -2.84 374 32.04C392.315 69.48 409.982 69.48 427 32.04C444.667 -5.4 462.333 -5.4 480 32.04C497.591 69.16 515.258 69.16 533 32.04" stroke="#465062" stroke-width="6"/>
<path d="M57 48.04C74.6667 9.32 92.3333 9.32 110 48.04C126.572 81.96 144.238 81.96 163 48.04C180.667 14.12 198.333 14.12 216 48.04C233.417 81 251.083 81 269 48.04C286.667 15.08 304.333 15.08 322 48.04C340.181 82.92 357.848 82.92 375 48.04C392.667 13.16 410.333 13.16 428 48.04C446.315 85.48 463.982 85.48 481 48.04C498.667 10.6 516.333 10.6 534 48.04C551.591 85.16 569.258 85.16 587 48.04" stroke="#26D07C" stroke-width="6"/>
</svg>
